<?xml version="1.0" encoding="UTF-8"?>
<svg id="Camada_2" data-name="Camada 2" xmlns="http://www.w3.org/2000/svg" viewBox="0 0 668 668">
  <defs>
    <style>
      .cls-1, .cls-2 {
        isolation: isolate;
      }

      .cls-1, .cls-3 {
        fill: #f9f8f5;
      }

      .cls-4 {
        fill: #adcfc1;
        stroke: #f9f8f5;
        stroke-miterlimit: 10;
        stroke-width: 12px;
      }

      .cls-5 {
        fill: #9aced8;
      }

      .cls-6 {
        fill: #9acbd5;
      }

      .cls-7 {
        fill: #7eb5c7;
      }

      .cls-8 {
        fill: #9ccdd7;
      }
    </style>
  </defs>
  <g id="Camada_1-2" data-name="Camada 1">
    <rect class="cls-1" width="668" height="668"/>
    <g>
      <rect class="cls-3" x="301.92" y="360.69" width="61.21" height="54.52"/>
      <g>
        <path class="cls-7" d="M188.9,501.8c0-.24.79-1.06,2.36-2.45,3.57-3.09,7.24-4.75,10.99-5h1.09c3.63,0,6.78.97,9.45,2.91,2.67,1.94,4.63,4.38,5.91,7.31,1.27,2.94,1.91,6.1,1.91,9.49v26.71h-9.08v-24.53c0-1.82-.06-3.35-.18-4.59-.12-1.24-.4-2.62-.82-4.13-.42-1.51-1.15-2.77-2.18-3.77-1.03-1-2.36-1.68-4-2.04-.73-.18-1.49-.27-2.27-.27-2.73,0-5.03,1.12-6.91,3.36-1.88,2.24-2.82,5.33-2.82,9.27-.06,0-.09,2.23-.09,6.68v20.03h-9.08v-26.89c0-3.69-.88-6.69-2.63-8.99-1.76-2.3-4.06-3.45-6.91-3.45h-.18c-3.57.06-6.06,1.41-7.45,4.04-1.39,2.63-2.09,6.89-2.09,12.77v22.53h-8.54v-23.53c0-4.12.51-7.72,1.54-10.81,1.03-3.09,2.44-5.45,4.22-7.09,1.79-1.64,3.6-2.86,5.45-3.68,1.85-.82,3.8-1.29,5.86-1.41.48-.06,1-.09,1.54-.09,1.76,0,3.48.26,5.18.77,1.69.52,3.06,1.08,4.09,1.68,1.03.61,2.01,1.35,2.95,2.23.94.88,1.56,1.5,1.86,1.86.3.36.58.7.82,1v.09Z"/>
        <path class="cls-7" d="M281.66,495.26h9.08v22.53c0,5.33,1.18,9.31,3.54,11.95,2.36,2.63,5.18,3.95,8.45,3.95,4.42,0,7.78-1.35,10.08-4.04,2.3-2.69,3.45-6.65,3.45-11.86v-22.53h8.18v25.17c0,6-1.95,11.03-5.86,15.08-3.91,4.06-9.19,6.09-15.85,6.09-1.03,0-2-.03-2.91-.09-.91-.06-2.1-.26-3.59-.59-1.49-.33-2.85-.77-4.09-1.32-1.24-.55-2.53-1.35-3.86-2.41-1.33-1.06-2.47-2.32-3.41-3.77-.94-1.45-1.71-3.3-2.32-5.54-.61-2.24-.91-4.72-.91-7.45v-25.17Z"/>
        <path class="cls-7" d="M363.13,541.69c-2.97,0-5.82-.45-8.54-1.36-2.73-.91-5.24-2.29-7.54-4.13-2.3-1.85-4.13-4.33-5.5-7.45-1.36-3.12-2.04-6.68-2.04-10.67v-43.06c0-1.35,1.1-2.45,2.45-2.45h4.18c1.35,0,2.45,1.1,2.45,2.45v26.17c.18-.18.41-.42.68-.73.27-.3.89-.85,1.86-1.64.97-.79,1.98-1.48,3.04-2.09,1.06-.61,2.42-1.15,4.09-1.64,1.66-.48,3.38-.73,5.13-.73h.18c7.63.06,13.4,2.3,17.31,6.72,3.91,4.42,5.86,10.08,5.86,16.99s-2.17,12.64-6.5,17.03c-4.33,4.39-10.04,6.59-17.12,6.59ZM363.13,533.51c4.24,0,7.72-1.48,10.45-4.45,2.72-2.97,4.09-6.63,4.09-10.99s-1.36-8.03-4.09-10.99c-2.73-2.97-6.21-4.45-10.45-4.45s-7.79,1.48-10.63,4.45c-2.85,2.97-4.27,6.62-4.27,10.95s1.42,8,4.27,10.99c2.85,3,6.39,4.5,10.63,4.5Z"/>
        <path class="cls-7" d="M401.29,520.34c.55,3.7,2.12,6.77,4.72,9.22s5.78,3.68,9.54,3.68,7.02-1.18,9.49-3.53c1.02-.97,2.61-.98,3.61.01l2.71,2.71c.87.87.87,2.3-.04,3.13-1.82,1.67-3.88,3.02-6.19,4.04-3,1.33-6.19,2-9.58,2-6.48,0-11.99-2.3-16.54-6.9-4.54-4.6-6.81-10.18-6.81-16.72s2.27-12.11,6.81-16.72c4.54-4.6,10.05-6.9,16.54-6.9s11.95,2.3,16.4,6.9c4.45,4.6,6.68,10.18,6.68,16.72v.55c0,1-.81,1.8-1.8,1.79-4.46-.05-9.12-.07-14.01-.07-5.27,0-12.45.03-21.53.09ZM415.55,503.17c-3.39,0-6.3.86-8.72,2.59-2.42,1.73-4.09,4.1-5,7.13h27.16c-.91-3.03-2.53-5.41-4.86-7.13-2.33-1.73-5.19-2.59-8.58-2.59Z"/>
        <path class="cls-7" d="M237.05,520.43c.55,3.7,2.12,6.77,4.72,9.22s5.78,3.68,9.54,3.68c4.07,0,7.37-1.31,9.9-3.94.76-.78,2.02-.76,2.79.01l3.54,3.54c.64.64.62,1.68-.02,2.3-1.93,1.86-4.13,3.34-6.62,4.45-3,1.33-6.19,2-9.58,2-6.48,0-11.99-2.3-16.54-6.9-4.54-4.6-6.81-10.18-6.81-16.72s2.27-12.11,6.81-16.72c4.54-4.6,10.05-6.9,16.54-6.9s11.95,2.3,16.4,6.9c4.45,4.6,6.68,10.18,6.68,16.72v.61c0,.97-.78,1.75-1.75,1.74-4.47-.05-9.16-.07-14.06-.07-5.27,0-12.45.03-21.53.09ZM251.31,503.26c-3.39,0-6.3.86-8.72,2.59-2.42,1.73-4.09,4.1-5,7.13h27.16c-.91-3.03-2.53-5.41-4.86-7.13-2.33-1.73-5.19-2.59-8.58-2.59Z"/>
        <path class="cls-7" d="M479.24,501.8c0-.24.79-1.06,2.36-2.45,3.57-3.09,7.24-4.75,10.99-5h1.09c3.63,0,6.78.97,9.45,2.91,2.66,1.94,4.63,4.38,5.9,7.31,1.27,2.94,1.91,6.1,1.91,9.49v26.71h-9.08v-24.53c0-1.82-.06-3.35-.18-4.59-.12-1.24-.4-2.62-.82-4.13-.42-1.51-1.15-2.77-2.18-3.77-1.03-1-2.36-1.68-4-2.04-.73-.18-1.49-.27-2.27-.27-2.73,0-5.03,1.12-6.91,3.36-1.88,2.24-2.82,5.33-2.82,9.27-.06,0-.09,2.23-.09,6.68v20.03h-9.09v-26.89c0-3.69-.88-6.69-2.63-8.99-1.76-2.3-4.06-3.45-6.9-3.45h-.18c-3.57.06-6.06,1.41-7.45,4.04-1.39,2.63-2.09,6.89-2.09,12.77v22.53h-8.54v-23.53c0-4.12.51-7.72,1.54-10.81,1.03-3.09,2.44-5.45,4.22-7.09,1.79-1.64,3.6-2.86,5.45-3.68,1.85-.82,3.8-1.29,5.86-1.41.48-.06,1-.09,1.54-.09,1.76,0,3.48.26,5.18.77,1.69.52,3.06,1.08,4.09,1.68,1.03.61,2.01,1.35,2.95,2.23.94.88,1.56,1.5,1.86,1.86s.58.7.82,1v.09Z"/>
      </g>
      <g class="cls-2">
        <path class="cls-8" d="M162.26,571.78h-3.14v4.8c0,.69-.16,1.21-.49,1.56-.32.35-.73.53-1.23.53s-.93-.18-1.25-.53c-.32-.35-.47-.86-.47-1.54v-13.06c0-.75.17-1.29.52-1.62.35-.32.9-.49,1.65-.49h4.4c1.3,0,2.3.1,3,.3.69.19,1.29.51,1.8.96.5.45.89.99,1.15,1.64.26.65.39,1.38.39,2.18,0,1.73-.53,3.03-1.59,3.92-1.06.89-2.65,1.33-4.75,1.33ZM161.43,564.01h-2.31v5.18h2.31c.81,0,1.49-.08,2.03-.25.54-.17.96-.45,1.24-.83.29-.38.43-.89.43-1.51,0-.75-.22-1.36-.66-1.83-.49-.5-1.51-.75-3.04-.75Z"/>
        <path class="cls-8" d="M175.45,563.23v12.33h6.96c.55,0,.98.13,1.28.4.3.27.44.61.44,1.02s-.15.75-.44,1.01c-.29.26-.72.39-1.28.39h-8.29c-.75,0-1.29-.17-1.61-.5-.33-.33-.49-.87-.49-1.61v-13.05c0-.69.16-1.21.47-1.56s.72-.52,1.23-.52.93.17,1.25.51c.32.34.48.87.48,1.57Z"/>
        <path class="cls-8" d="M197.53,576.46l-.81-2.13h-6.89l-.81,2.17c-.32.85-.58,1.42-.81,1.72-.22.3-.59.45-1.1.45-.43,0-.81-.16-1.14-.47-.33-.32-.5-.67-.5-1.08,0-.23.04-.47.12-.72.08-.25.2-.59.38-1.03l4.33-11c.12-.32.27-.7.45-1.14.17-.44.36-.81.55-1.1s.45-.53.77-.71c.32-.18.71-.27,1.18-.27s.88.09,1.2.27c.32.18.58.42.77.7.2.29.36.59.5.92.13.33.31.77.51,1.31l4.43,10.93c.35.83.52,1.44.52,1.81s-.16.75-.49,1.08c-.33.33-.72.49-1.18.49-.27,0-.5-.05-.69-.14s-.35-.23-.49-.39c-.13-.17-.27-.42-.42-.76-.15-.34-.28-.64-.39-.91ZM190.74,571.76h5.06l-2.55-6.99-2.51,6.99Z"/>
        <path class="cls-8" d="M213.25,564.27h-3.75v12.31c0,.71-.16,1.23-.47,1.58-.32.34-.72.51-1.22.51s-.92-.17-1.24-.52c-.32-.35-.48-.87-.48-1.57v-12.31h-3.75c-.58,0-1.02-.13-1.31-.39-.29-.26-.43-.6-.43-1.02s.15-.79.45-1.04c.3-.25.73-.38,1.29-.38h10.91c.59,0,1.03.13,1.32.39.29.26.43.6.43,1.03s-.15.76-.44,1.02c-.29.26-.73.39-1.32.39Z"/>
        <path class="cls-8" d="M227.01,576.46l-.81-2.13h-6.89l-.81,2.17c-.32.85-.58,1.42-.81,1.72-.22.3-.59.45-1.1.45-.43,0-.81-.16-1.14-.47-.33-.32-.5-.67-.5-1.08,0-.23.04-.47.12-.72.08-.25.2-.59.38-1.03l4.33-11c.12-.32.27-.7.45-1.14.17-.44.36-.81.55-1.1s.45-.53.77-.71c.32-.18.71-.27,1.18-.27s.88.09,1.2.27c.32.18.58.42.77.7.2.29.36.59.5.92.13.33.31.77.51,1.31l4.43,10.93c.35.83.52,1.44.52,1.81s-.16.75-.49,1.08c-.33.33-.72.49-1.18.49-.27,0-.5-.05-.69-.14s-.35-.23-.49-.39c-.13-.17-.27-.42-.42-.76-.15-.34-.28-.64-.39-.91ZM220.21,571.76h5.06l-2.55-6.99-2.51,6.99Z"/>
        <path class="cls-8" d="M243.93,564.08h-6.76v4.33h5.65c.52,0,.92.12,1.17.35.26.24.39.55.39.94s-.13.71-.39.94c-.26.23-.65.35-1.17.35h-5.65v5.58c0,.71-.16,1.23-.48,1.58-.32.34-.73.51-1.23.51s-.92-.17-1.24-.52c-.32-.35-.48-.87-.48-1.57v-13.04c0-.49.07-.9.22-1.21.15-.31.38-.54.69-.68.31-.14.71-.21,1.2-.21h8.09c.55,0,.95.12,1.22.36.27.24.4.56.4.95s-.13.72-.4.97c-.27.24-.67.36-1.22.36Z"/>
        <path class="cls-8" d="M256.18,561.15c1.76,0,3.26.36,4.52,1.07s2.21,1.73,2.86,3.04c.65,1.31.97,2.86.97,4.63,0,1.31-.18,2.5-.53,3.57s-.89,2-1.59,2.79c-.71.79-1.58,1.39-2.61,1.8s-2.21.62-3.55.62-2.51-.21-3.56-.64-1.92-1.03-2.62-1.81-1.23-1.71-1.59-2.81c-.36-1.09-.54-2.28-.54-3.55s.19-2.5.56-3.58c.37-1.09.92-2.01,1.62-2.77s1.57-1.35,2.59-1.75c1.02-.41,2.17-.61,3.47-.61ZM261.05,569.86c0-1.24-.2-2.32-.6-3.22-.4-.91-.97-1.6-1.72-2.06-.74-.47-1.6-.7-2.56-.7-.69,0-1.32.13-1.9.39-.58.26-1.08.63-1.5,1.13s-.75,1.12-.99,1.89c-.24.77-.36,1.63-.36,2.58s.12,1.83.36,2.61c.24.78.59,1.42,1.03,1.94.44.51.95.9,1.53,1.15.57.25,1.2.38,1.89.38.88,0,1.69-.22,2.42-.66.74-.44,1.32-1.12,1.76-2.03.44-.92.65-2.05.65-3.39Z"/>
        <path class="cls-8" d="M272.7,571.13h-1.2v5.44c0,.72-.16,1.24-.47,1.58-.32.34-.73.51-1.24.51-.55,0-.97-.18-1.27-.53-.3-.35-.45-.87-.45-1.56v-13.04c0-.74.17-1.28.5-1.61s.87-.5,1.61-.5h5.58c.77,0,1.43.03,1.98.1.55.07,1.04.2,1.48.4.53.22,1,.54,1.41.96.41.42.72.9.93,1.45s.32,1.13.32,1.75c0,1.26-.36,2.27-1.07,3.03s-1.79,1.29-3.24,1.61c.61.32,1.19.8,1.75,1.43.55.63,1.05,1.3,1.49,2.02s.77,1.36,1.02,1.93c.24.57.36.97.36,1.18s-.07.45-.21.67-.34.39-.58.52c-.25.13-.53.19-.86.19-.39,0-.71-.09-.97-.27-.26-.18-.49-.41-.68-.69-.19-.28-.44-.69-.77-1.23l-1.38-2.29c-.49-.84-.93-1.48-1.32-1.92-.39-.44-.78-.74-1.18-.9-.4-.16-.91-.24-1.51-.24ZM274.66,564.01h-3.17v4.66h3.07c.83,0,1.52-.07,2.08-.21s.99-.38,1.29-.73c.3-.34.45-.82.45-1.42,0-.47-.12-.88-.36-1.24-.24-.36-.57-.63-.99-.8-.4-.17-1.19-.25-2.37-.25Z"/>
        <path class="cls-8" d="M291.45,575.82l-2.72-10.79v11.7c0,.65-.14,1.13-.43,1.46-.29.32-.67.49-1.15.49s-.84-.16-1.13-.48c-.29-.32-.44-.81-.44-1.46v-13.41c0-.74.19-1.24.58-1.5.38-.26.91-.39,1.56-.39h1.06c.64,0,1.1.06,1.39.17.29.12.5.32.64.62.14.3.3.79.47,1.47l2.46,9.28,2.46-9.28c.18-.68.33-1.17.47-1.47.14-.3.35-.51.64-.62.29-.12.75-.17,1.39-.17h1.06c.65,0,1.17.13,1.56.39.39.26.58.76.58,1.5v13.41c0,.65-.14,1.13-.43,1.46-.29.32-.68.49-1.16.49-.46,0-.83-.16-1.12-.49-.29-.32-.44-.81-.44-1.46v-11.7l-2.72,10.79c-.18.7-.32,1.22-.43,1.54-.11.33-.32.63-.62.9s-.72.4-1.25.4c-.4,0-.74-.09-1.02-.26-.28-.17-.49-.4-.65-.67s-.28-.57-.36-.9c-.09-.33-.18-.67-.27-1.02Z"/>
        <path class="cls-8" d="M316.9,576.46l-.81-2.13h-6.89l-.81,2.17c-.32.85-.58,1.42-.81,1.72-.22.3-.59.45-1.1.45-.43,0-.81-.16-1.14-.47-.33-.32-.5-.67-.5-1.08,0-.23.04-.47.12-.72.08-.25.2-.59.38-1.03l4.33-11c.12-.32.27-.7.45-1.14.17-.44.36-.81.55-1.1s.45-.53.77-.71c.32-.18.71-.27,1.18-.27s.88.09,1.2.27c.32.18.58.42.77.7.2.29.36.59.5.92.13.33.31.77.51,1.31l4.43,10.93c.35.83.52,1.44.52,1.81s-.16.75-.49,1.08c-.33.33-.72.49-1.18.49-.27,0-.5-.05-.69-.14s-.35-.23-.49-.39c-.13-.17-.27-.42-.42-.76-.15-.34-.28-.64-.39-.91ZM310.1,571.76h5.06l-2.55-6.99-2.51,6.99Z"/>
        <path class="cls-8" d="M332.36,561.43h4.47c1.16,0,2.16.11,2.99.32.83.22,1.59.62,2.27,1.21,1.76,1.51,2.65,3.81,2.65,6.89,0,1.02-.09,1.95-.27,2.79-.18.84-.45,1.6-.82,2.27-.37.67-.84,1.28-1.42,1.81-.46.41-.95.74-1.49.98-.54.25-1.12.42-1.74.52-.62.1-1.32.15-2.1.15h-4.47c-.62,0-1.09-.09-1.41-.28-.32-.19-.52-.45-.62-.8-.1-.34-.14-.79-.14-1.33v-12.42c0-.74.17-1.28.5-1.61s.87-.5,1.61-.5ZM333.69,564.15v11.5h2.6c.57,0,1.02-.02,1.34-.05.32-.03.66-.11,1.01-.23s.65-.3.9-.52c1.15-.97,1.72-2.64,1.72-5.02,0-1.67-.25-2.92-.76-3.76-.5-.83-1.13-1.36-1.87-1.59-.74-.23-1.63-.34-2.68-.34h-2.26Z"/>
        <path class="cls-8" d="M359.54,564.08h-7.73v4.16h7.12c.52,0,.91.12,1.17.35.26.24.39.55.39.93s-.13.7-.38.94c-.25.24-.65.36-1.18.36h-7.12v4.82h8c.54,0,.95.12,1.22.38.27.25.41.58.41,1s-.14.73-.41.98c-.27.25-.68.38-1.22.38h-9.33c-.75,0-1.29-.17-1.61-.5-.33-.33-.49-.87-.49-1.61v-12.74c0-.49.07-.9.22-1.21.15-.31.38-.54.69-.68.31-.14.71-.21,1.2-.21h9.06c.55,0,.95.12,1.22.36.27.24.4.56.4.95s-.13.72-.4.97c-.27.24-.67.36-1.22.36Z"/>
        <path class="cls-8" d="M378.54,578.38h-5.18c-.75,0-1.28-.17-1.6-.5-.32-.33-.48-.87-.48-1.6v-12.74c0-.75.16-1.28.49-1.61.33-.33.86-.49,1.59-.49h5.49c.81,0,1.51.05,2.1.15.59.1,1.12.29,1.6.58.4.24.75.54,1.06.91.31.37.54.77.7,1.21.16.44.24.91.24,1.4,0,1.7-.85,2.94-2.54,3.72,2.23.71,3.34,2.09,3.34,4.14,0,.95-.24,1.8-.73,2.56-.49.76-1.14,1.32-1.96,1.68-.52.22-1.11.37-1.78.46-.67.09-1.45.13-2.35.13ZM374.72,564.01v4.38h3.14c.86,0,1.52-.08,1.98-.24.47-.16.82-.47,1.07-.92.19-.32.29-.69.29-1.09,0-.86-.3-1.42-.91-1.71-.61-.28-1.54-.42-2.79-.42h-2.79ZM378.29,570.85h-3.57v4.95h3.69c2.32,0,3.48-.84,3.48-2.51,0-.85-.3-1.48-.9-1.86-.6-.39-1.5-.58-2.69-.58Z"/>
        <path class="cls-8" d="M400.11,564.08h-7.73v4.16h7.12c.52,0,.91.12,1.17.35.26.24.39.55.39.93s-.13.7-.38.94c-.25.24-.65.36-1.18.36h-7.12v4.82h8c.54,0,.95.12,1.22.38.27.25.41.58.41,1s-.14.73-.41.98c-.27.25-.68.38-1.22.38h-9.33c-.75,0-1.29-.17-1.61-.5-.33-.33-.49-.87-.49-1.61v-12.74c0-.49.07-.9.22-1.21.15-.31.38-.54.69-.68.31-.14.71-.21,1.2-.21h9.06c.55,0,.95.12,1.22.36.27.24.4.56.4.95s-.13.72-.4.97c-.27.24-.67.36-1.22.36Z"/>
        <path class="cls-8" d="M411.07,575.82l-2.72-10.79v11.7c0,.65-.14,1.13-.43,1.46-.29.32-.67.49-1.15.49s-.84-.16-1.13-.48c-.29-.32-.44-.81-.44-1.46v-13.41c0-.74.19-1.24.58-1.5.38-.26.91-.39,1.56-.39h1.06c.64,0,1.1.06,1.39.17.29.12.5.32.64.62.14.3.3.79.47,1.47l2.46,9.28,2.46-9.28c.18-.68.33-1.17.47-1.47.14-.3.35-.51.64-.62.29-.12.75-.17,1.39-.17h1.06c.65,0,1.17.13,1.56.39.39.26.58.76.58,1.5v13.41c0,.65-.14,1.13-.43,1.46-.29.32-.68.49-1.16.49-.46,0-.83-.16-1.12-.49-.29-.32-.44-.81-.44-1.46v-11.7l-2.72,10.79c-.18.7-.32,1.22-.43,1.54-.11.33-.32.63-.62.9s-.72.4-1.25.4c-.4,0-.74-.09-1.02-.26-.28-.17-.49-.4-.65-.67s-.28-.57-.36-.9c-.09-.33-.18-.67-.27-1.02Z"/>
        <path class="cls-8" d="M429.61,573.62h-3.65c-.55,0-.98-.13-1.27-.39-.29-.26-.43-.59-.43-1s.14-.75.42-1.01.71-.39,1.28-.39h3.65c.57,0,1,.13,1.28.39.28.26.42.59.42,1.01s-.14.74-.42,1c-.28.26-.71.39-1.28.39Z"/>
        <path class="cls-8" d="M445.35,564.08h-7.73v4.16h7.12c.52,0,.91.12,1.17.35.26.24.39.55.39.93s-.13.7-.38.94c-.25.24-.65.36-1.18.36h-7.12v4.82h8c.54,0,.95.12,1.22.38.27.25.41.58.41,1s-.14.73-.41.98c-.27.25-.68.38-1.22.38h-9.33c-.75,0-1.29-.17-1.61-.5-.33-.33-.49-.87-.49-1.61v-12.74c0-.49.07-.9.22-1.21.15-.31.38-.54.69-.68.31-.14.71-.21,1.2-.21h9.06c.55,0,.95.12,1.22.36.27.24.4.56.4.95s-.13.72-.4.97c-.27.24-.67.36-1.22.36Z"/>
        <path class="cls-8" d="M463.46,573.29c0,1.03-.26,1.95-.79,2.76-.53.82-1.3,1.46-2.32,1.92-1.02.46-2.22.69-3.62.69-1.67,0-3.05-.32-4.14-.95-.77-.45-1.4-1.06-1.88-1.82-.48-.76-.72-1.5-.72-2.21,0-.42.14-.77.43-1.07s.66-.45,1.1-.45c.36,0,.67.12.92.35.25.23.46.57.64,1.03.22.54.45.99.7,1.35.25.36.6.66,1.06.9.45.24,1.05.35,1.79.35,1.02,0,1.84-.24,2.48-.71s.95-1.07.95-1.77c0-.56-.17-1.02-.51-1.37s-.79-.62-1.33-.8-1.27-.38-2.18-.59c-1.22-.28-2.24-.62-3.06-1-.82-.38-1.47-.9-1.95-1.56-.48-.66-.72-1.48-.72-2.46s.25-1.76.76-2.49c.51-.72,1.24-1.28,2.21-1.67s2.1-.58,3.4-.58c1.04,0,1.94.13,2.7.39.76.26,1.39.6,1.89,1.03.5.43.87.88,1.1,1.35s.35.93.35,1.38c0,.41-.14.78-.43,1.1-.29.33-.65.49-1.08.49-.39,0-.69-.1-.9-.29s-.43-.52-.66-.96c-.31-.64-.68-1.14-1.11-1.5-.43-.36-1.13-.54-2.08-.54-.89,0-1.6.19-2.14.58-.54.39-.82.86-.82,1.4,0,.34.09.63.28.88.19.25.44.46.76.64.32.18.65.32.98.42.33.1.88.25,1.64.44.96.22,1.82.47,2.59.74s1.43.6,1.98.98c.54.39.97.87,1.27,1.46.3.59.46,1.31.46,2.17Z"/>
        <path class="cls-8" d="M477.99,564.27h-3.75v12.31c0,.71-.16,1.23-.47,1.58-.32.34-.72.51-1.22.51s-.92-.17-1.24-.52c-.32-.35-.48-.87-.48-1.57v-12.31h-3.75c-.58,0-1.02-.13-1.31-.39-.29-.26-.43-.6-.43-1.02s.15-.79.45-1.04c.3-.25.73-.38,1.29-.38h10.91c.59,0,1.03.13,1.32.39.29.26.43.6.43,1.03s-.15.76-.44,1.02c-.29.26-.73.39-1.32.39Z"/>
        <path class="cls-8" d="M491.75,576.46l-.81-2.13h-6.89l-.81,2.17c-.32.85-.58,1.42-.81,1.72-.22.3-.59.45-1.1.45-.43,0-.81-.16-1.14-.47-.33-.32-.5-.67-.5-1.08,0-.23.04-.47.12-.72.08-.25.2-.59.38-1.03l4.33-11c.12-.32.27-.7.45-1.14.17-.44.36-.81.55-1.1s.45-.53.77-.71c.32-.18.71-.27,1.18-.27s.88.09,1.2.27c.32.18.58.42.77.7.2.29.36.59.5.92.13.33.31.77.51,1.31l4.43,10.93c.35.83.52,1.44.52,1.81s-.16.75-.49,1.08c-.33.33-.72.49-1.18.49-.27,0-.5-.05-.69-.14s-.35-.23-.49-.39c-.13-.17-.27-.42-.42-.76-.15-.34-.28-.64-.39-.91ZM484.95,571.76h5.06l-2.55-6.99-2.51,6.99Z"/>
        <path class="cls-8" d="M503.16,571.13h-1.2v5.44c0,.72-.16,1.24-.47,1.58-.32.34-.73.51-1.24.51-.55,0-.97-.18-1.27-.53-.3-.35-.45-.87-.45-1.56v-13.04c0-.74.17-1.28.5-1.61s.87-.5,1.61-.5h5.58c.77,0,1.43.03,1.98.1.55.07,1.04.2,1.48.4.53.22,1,.54,1.41.96.41.42.72.9.93,1.45s.32,1.13.32,1.75c0,1.26-.36,2.27-1.07,3.03s-1.79,1.29-3.24,1.61c.61.32,1.19.8,1.75,1.43.55.63,1.05,1.3,1.49,2.02s.77,1.36,1.02,1.93c.24.57.36.97.36,1.18s-.07.45-.21.67-.34.39-.58.52c-.25.13-.53.19-.86.19-.39,0-.71-.09-.97-.27-.26-.18-.49-.41-.68-.69-.19-.28-.44-.69-.77-1.23l-1.38-2.29c-.49-.84-.93-1.48-1.32-1.92-.39-.44-.78-.74-1.18-.9-.4-.16-.91-.24-1.51-.24ZM505.13,564.01h-3.17v4.66h3.07c.83,0,1.52-.07,2.08-.21s.99-.38,1.29-.73c.3-.34.45-.82.45-1.42,0-.47-.12-.88-.36-1.24-.24-.36-.57-.63-.99-.8-.4-.17-1.19-.25-2.37-.25Z"/>
      </g>
      <g>
        <path class="cls-5" d="M332.92,378.85c-70.42,0-127.71-45.38-127.71-101.15,0-20.61,11.02-41.27,30.23-56.68,15.36-12.32,43.23-27,88.78-27,2.37,0,4.8.04,7.22.12,2.41-.08,4.82-.12,7.19-.12,46.35,0,75,14.9,90.87,27.39,19.49,15.34,31.12,36.38,31.12,56.29,0,55.78-57.29,101.15-127.71,101.15Z"/>
        <path class="cls-3" d="M324.22,200.02c2.37,0,4.77.04,7.22.13,2.43-.08,4.83-.12,7.19-.12,77.77,0,115.99,43.73,115.99,77.68,0,52.55-54.49,95.15-121.71,95.15s-121.71-42.6-121.71-95.15c0-35.08,36.96-77.68,113.01-77.68M324.22,188.02c-47.29,0-76.43,15.4-92.54,28.32-20.64,16.55-32.48,38.92-32.48,61.36,0,14.86,3.7,29.24,11.01,42.75,6.92,12.79,16.76,24.23,29.25,33.99,25.09,19.61,58.28,30.42,93.45,30.42s68.36-10.8,93.45-30.42c12.49-9.76,22.33-21.2,29.25-33.99,7.31-13.5,11.01-27.89,11.01-42.75,0-10.6-2.99-21.72-8.63-32.17-5.83-10.77-14.16-20.47-24.78-28.83-16.62-13.08-46.52-28.68-94.57-28.68-2.37,0-4.79.04-7.19.12-2.42-.08-4.85-.12-7.22-.12h0Z"/>
      </g>
      <g>
        <path class="cls-6" d="M333.23,191.21c-18.11,0-35.64-9.89-45.75-25.81-9.99-15.74-11.08-34.64-2.99-51.87,6.92-14.73,24.32-27.77,39.62-29.69,2.66-.33,5.33-.5,7.94-.5,24.14,0,44.54,14.75,51.98,37.57,7.27,22.31-.46,45.79-19.7,59.82-9.4,6.86-20.16,10.48-31.09,10.48Z"/>
        <path class="cls-3" d="M332.04,89.33c46.29,0,66.98,58.65,28.74,86.54-8.9,6.49-18.4,9.33-27.55,9.33-31.89,0-59.6-34.46-43.31-69.12,5.79-12.31,21.29-24.58,34.94-26.29,2.46-.31,4.86-.46,7.19-.46M332.04,77.33v12.73s0-.73,0-.73v-12c-2.85,0-5.77.19-8.69.55-8.57,1.08-17.87,5.18-26.2,11.54-8.02,6.13-14.44,13.78-18.1,21.55-8.99,19.12-7.76,40.13,3.35,57.63,11.2,17.64,30.67,28.59,50.82,28.59,12.21,0,24.19-4.02,34.63-11.64,11.05-8.06,18.82-18.86,22.49-31.26,3.39-11.44,3.17-23.63-.62-35.27-3.85-11.81-11.01-21.98-20.72-29.43-10.47-8.03-23.25-12.28-36.96-12.28h0Z"/>
      </g>
      <path class="cls-4" d="M332.79,377.11l-68.73-68.73c-15.38-15.38-17.38-39.99-3.93-57.09,8.33-10.59,20.44-15.89,32.54-15.89,10.55,0,21.11,4.03,29.17,12.08l10.95,10.95c.07.07.18.07.25,0l10.94-10.95c8.05-8.05,18.62-12.08,29.17-12.08,12.11,0,24.21,5.3,32.54,15.89,13.44,17.1,11.45,41.71-3.93,57.09l-68.85,68.85"/>
      <g>
        <g>
          <path class="cls-7" d="M345.07,452.55c-3.26,0-5.3-.45-6.85-1.49-2.72-1.84-5.19-5.7-4.83-21.32.18-7.78,1.05-16.44,1.76-19.99,7.23-36.44,30.38-51.08,54.88-66.58,8.31-5.25,16.9-10.69,25.1-17.14,1.06-.83,2.33-2.02,3.69-3.27,4.92-4.56,11.04-10.24,18.2-10.24,1.35,0,2.68.21,3.96.62,4.41,1.42,7.82,6.58,8.35,10.75,5.17-9.62,9.5-20.01,13.92-30.62,3.56-8.54,7.24-17.38,11.41-25.76,4.06-8.18,13.93-16.64,23.43-16.64.35,0,.7.01,1.04.03,6.13.4,10.67,3.73,12.45,9.12,2.14,6.5.34,19.43-1.52,31.05l-.12.77c-6.27,39.29-21.76,74.27-44.82,101.15-24.58,28.67-56.54,47.58-94.96,56.21-3.85.87-17.51,3.38-25.1,3.38h0Z"/>
          <path class="cls-3" d="M498.09,255.85c.24,0,.48,0,.72.02,3.8.25,6.8,1.97,8.03,5.7,2.01,6.11-.71,22.47-1.83,29.46-12.13,76.07-59.02,136-135.94,153.27-3.64.82-16.96,3.25-24,3.25-1.93,0-3.38-.18-4.04-.63-4.57-3.1-2.13-30.35-.97-36.2,9.21-46.38,45.78-55.29,78.17-80.76,4.91-3.86,11.89-12.45,18.79-12.45.81,0,1.62.12,2.43.38,2.42.78,4.94,4.57,4.96,7.08.07,13.25-26.53,34.83-36.25,43.11.47.9,1.19,1.23,2.03,1.23,1.97,0,4.6-1.84,6.21-2.75,37.19-20.92,45.51-62.14,62.74-96.85,3.15-6.35,11.45-13.86,18.96-13.86M498.09,245.85c-5.73,0-11.71,2.31-17.28,6.68-4.49,3.52-8.36,8.16-10.63,12.74-4.24,8.53-7.95,17.44-11.54,26.06-3.07,7.36-6.09,14.61-9.38,21.55-1.93-2.09-4.27-3.71-6.75-4.51-1.77-.57-3.61-.86-5.48-.86-9.12,0-16.33,6.69-21.6,11.58-1.28,1.18-2.48,2.3-3.38,3.01-8.01,6.3-16.49,11.66-24.69,16.85-24.32,15.38-49.46,31.28-57.11,69.83-.75,3.76-1.67,12.8-1.85,20.85-.34,14.75,1.63,21.92,7.03,25.58,3.06,2.07,6.59,2.35,9.65,2.35,8.77,0,23.63-2.92,26.19-3.5,19.85-4.46,38.34-11.76,54.94-21.72,16.06-9.63,30.44-21.78,42.73-36.11,23.65-27.58,39.55-63.41,45.96-103.62l.12-.77c2.49-15.56,3.58-26.57,1.33-33.4-2.41-7.32-8.72-12.01-16.87-12.54-.45-.03-.91-.04-1.37-.04h0Z"/>
        </g>
        <g>
          <path class="cls-7" d="M320.76,452.55c-7.59,0-21.24-2.51-25.1-3.38-38.43-8.63-70.38-27.54-94.96-56.21-23.05-26.88-38.55-61.86-44.82-101.15l-.12-.78c-1.86-11.61-3.66-24.54-1.52-31.04,1.78-5.39,6.32-8.72,12.45-9.12.35-.02.7-.03,1.04-.03,9.5,0,19.37,8.46,23.43,16.64,4.16,8.39,7.85,17.22,11.41,25.76,4.42,10.61,8.75,21,13.92,30.62.54-4.17,3.94-9.33,8.35-10.74,1.27-.41,2.61-.62,3.96-.62,7.16,0,13.28,5.68,18.2,10.24,1.35,1.25,2.63,2.44,3.69,3.27,8.21,6.46,16.8,11.89,25.1,17.14,24.5,15.5,47.65,30.14,54.88,66.58.71,3.55,1.58,12.2,1.76,19.99.36,15.62-2.11,19.48-4.83,21.32-1.54,1.04-3.59,1.49-6.85,1.49Z"/>
          <path class="cls-3" d="M167.74,255.85c7.5,0,15.8,7.51,18.96,13.86,17.23,34.71,25.55,75.93,62.74,96.85,1.61.91,4.24,2.75,6.21,2.75.84,0,1.56-.34,2.03-1.23-9.72-8.28-36.31-29.86-36.25-43.11.01-2.51,2.53-6.3,4.96-7.08.81-.26,1.62-.38,2.43-.38,6.9,0,13.88,8.58,18.79,12.45,32.39,25.47,68.96,34.39,78.17,80.76,1.16,5.85,3.6,33.1-.97,36.2-.66.45-2.12.63-4.04.63-7.04,0-20.36-2.44-24-3.25-76.92-17.27-123.81-77.2-135.94-153.27-1.12-6.99-3.84-23.35-1.83-29.46,1.23-3.73,4.24-5.45,8.03-5.7.24-.02.48-.02.72-.02M167.74,245.85h0c-.46,0-.92.02-1.37.04-8.15.54-14.46,5.23-16.87,12.54-2.25,6.83-1.16,17.84,1.33,33.4l.12.77c6.41,40.2,22.3,76.04,45.96,103.62,12.29,14.33,26.67,26.48,42.73,36.11,16.6,9.95,35.08,17.26,54.94,21.72,2.56.58,17.42,3.5,26.19,3.5,3.06,0,6.59-.28,9.65-2.35,5.4-3.66,7.37-10.83,7.03-25.58-.19-8.05-1.11-17.09-1.85-20.85-7.65-38.55-32.8-54.45-57.11-69.83-8.2-5.19-16.68-10.55-24.69-16.85-.9-.7-2.1-1.82-3.38-3.01-5.27-4.89-12.48-11.58-21.6-11.58-1.87,0-3.72.29-5.49.86-2.48.8-4.82,2.42-6.75,4.51-3.29-6.94-6.31-14.19-9.38-21.55-3.59-8.62-7.31-17.53-11.54-26.06-2.27-4.58-6.15-9.22-10.63-12.74-5.57-4.37-11.55-6.68-17.28-6.68h0Z"/>
        </g>
      </g>
      <ellipse class="cls-3" cx="334" cy="452.83" rx="32.25" ry="5.28"/>
    </g>
  </g>
</svg>